<svg width="54" height="47" viewBox="0 0 54 47" fill="none" xmlns="http://www.w3.org/2000/svg">
<path d="M23.3895 0.971262C22.4632 1.20306 21.2 1.66666 20.5895 2.00383C19.6632 2.4885 19.3474 2.57279 18.9263 2.40421C17.7053 1.94061 14.9895 2.29885 12.9895 3.1839C10.2526 4.38506 6 7.73563 5.28421 9.25287C4.61052 10.6648 4.8 11.3602 6.94737 15.6801C9.05263 19.9157 9.38947 20.3372 10.5053 20.0421C10.8 19.9789 11.2211 19.7261 11.4316 19.4943C11.6632 19.2414 12.5474 16.6916 13.4947 13.5517C14.4 10.5172 15.3895 7.69349 15.6632 7.25096C16.2737 6.32375 17.2 5.818 17.6632 6.19732C17.8947 6.38697 17.7895 6.89272 17.0316 9.12644C16.5474 10.6015 15.7474 13.2567 15.2421 15.0479C14.4421 18.0402 14.3789 18.4406 14.4842 20.1897C14.5684 21.8544 14.6737 22.2548 15.4737 23.8563C16.4632 25.8582 18.2737 27.8812 19.9789 28.8716C20.7579 29.3353 21.3474 29.4828 22.5263 29.5671C24.2737 29.6724 25.2842 29.4195 26.2526 28.5977C26.6737 28.2395 26.9474 28.1341 26.9895 28.2816C27.1368 28.7241 28.4211 29.3985 29.4737 29.5881C30.7579 29.8199 32.5474 29.4617 33.8737 28.682C35.9579 27.4598 38.0421 24.8046 38.9053 22.2759C39.6211 20.1686 39.4526 18.4828 38.1263 13.91C37.4947 11.6973 36.7158 9.21073 36.4211 8.34674C35.7474 6.3659 35.7474 6.00766 36.4 6.00766C36.9684 6.00766 37.8316 6.74521 38.2737 7.63027C38.4632 7.96743 39.3263 10.6648 40.2105 13.5939C41.0947 16.5441 41.9368 19.0939 42.0632 19.2835C42.8211 20.2318 43.7474 20.3793 44.5263 19.6628C44.8 19.41 45.8526 17.4713 46.8842 15.364C48.9895 11.0019 49.0947 10.454 48.1474 8.93678C46.9474 7.0613 43.0105 4.09004 40.2316 2.99425C38.5895 2.31992 36.3579 2.06705 35.1368 2.40421C34.3579 2.61494 34.1684 2.57279 32.8211 1.91954C29.9579 0.528732 26.5895 0.191568 23.3895 0.971262ZM21.7895 11.908C22.4211 12.5402 22.3579 13.6571 21.6632 14.205C21.3474 14.4579 20.9684 14.6475 20.8211 14.6475C20.2737 14.6475 19.5158 14.1628 19.2842 13.6571C18.9474 12.9406 18.9895 12.6667 19.4947 12.0345C20.0421 11.3391 21.1579 11.2759 21.7895 11.908ZM33.6842 11.613C33.8526 11.6973 34.1684 12.0345 34.3368 12.3716C34.5895 12.8774 34.6105 13.1303 34.4211 13.5939C34.1895 14.1628 33.4526 14.6475 32.8211 14.6475C32.3368 14.6475 31.2632 13.4885 31.2632 12.9617C31.2632 11.9923 32.6316 11.2126 33.6842 11.613ZM30.4632 18.272C33.8105 19.8314 35.3895 23.1609 34.0421 25.7529C32.4632 28.7663 27.8947 28.408 27.8947 25.2682C27.8947 24.4042 27.9789 24.2356 29.0526 23.2452C30.3158 22.0651 30.4842 21.5383 29.7895 20.8008C29.1789 20.1475 27.8105 19.8525 26.2316 20C23.2211 20.3161 22.6947 21.4119 24.6316 23.3506C25.6632 24.3831 25.7895 24.5939 25.7895 25.3946C25.7895 26.1533 25.6632 26.4061 25.0526 26.9962C23.1789 28.7452 20.1263 27.7126 19.3474 25.0364C18.8421 23.2663 19.3053 21.6015 20.7789 19.9789C22.4 18.251 24.1895 17.5977 27.1579 17.6609C28.9263 17.7031 29.4526 17.7874 30.4632 18.272Z" fill="#FDFDFD"/>
<path d="M1.6421 22.4234C1.28421 22.6552 0.905261 23.0556 0.82105 23.3295C0.273682 25.0575 1.53684 29.9885 3.38947 33.3812C6.29473 38.7126 11.3474 42.9904 17.1579 45.0766C27.4947 48.8065 38.8421 46.2989 46.4421 38.6073C50 35.0249 52.9263 28.8717 53.0105 24.8046C53.0526 23.3084 53.0316 23.2452 52.3579 22.6341C51.4737 21.8544 50.6316 21.8333 49.7895 22.592C49.2632 23.0766 49.0526 23.5613 48.6316 25.2893C47.3263 30.6207 44.5474 33.887 38.7368 36.8793C37.5158 37.5326 36.421 37.9962 36.2947 37.933C36.1895 37.8487 36.1053 37.4272 36.1053 36.9636C36.1053 36.205 36.2105 36.0575 37.4105 35.1303C43.0316 30.7893 43.4737 30.3467 43.4737 28.8084C43.4737 27.7548 42.8632 26.954 41.8316 26.6379C40.8 26.3429 40.421 26.5115 37.8737 28.408C36.6947 29.272 34.2316 30.9789 32.4 32.2012C28.8421 34.5402 28.1263 35.2356 27.3684 37.1322L26.9053 38.249L26.5474 37.364C25.7263 35.2146 25.0526 34.6245 19.1158 30.7893C17.9158 30.0307 16.2105 28.8295 15.3263 28.113C13.3053 26.5326 12.8842 26.3429 11.8526 26.6379C10.821 26.954 10.2105 27.7548 10.2105 28.8084C10.2105 30.3257 10.7579 30.9157 15.6 34.6245C17.5579 36.1418 18.1053 37.0058 17.6 37.7854C17.4737 38.0172 16.9684 37.8487 15.3053 37.0058C12.2105 35.4674 10.9263 34.6035 9.15789 32.7912C6.77894 30.3678 5.6421 28.113 4.94737 24.4885C4.8 23.8142 4.50526 23.0345 4.25263 22.7395C3.62105 22.023 2.50526 21.8755 1.6421 22.4234Z" fill="#FDFDFD"/>
</svg>
